{"glyphs":{"0":{"ha":859,"x_min":0,"x_max":825,"o":"m 302 273 q 280 280 289 273 q 269 296 273 286 q 266 319 265 308 l 266 664 q 269 687 265 675 q 280 703 273 696 q 302 710 289 710 l 302 710 l 524 710 l 524 710 q 545 703 537 710 q 556 687 553 696 q 559 664 560 675 l 559 319 q 556 296 560 308 q 545 280 553 286 q 524 273 537 273 l 302 273 m 299 983 q 69 888 147 983 q 0 664 0 805 l 0 319 q 69 94 0 178 q 299 0 147 0 l 526 0 q 756 94 678 0 q 825 319 825 178 l 825 664 q 756 888 825 805 q 526 983 678 983 l 299 983 z "},"1":{"ha":307,"x_min":0,"x_max":273,"o":"m 0 0 l 273 0 l 273 983 l 0 983 l 0 0 z "},"2":{"ha":711,"x_min":0,"x_max":677,"o":"m 444 406 l 534 496 l 559 522 l 584 549 q 628 604 611 578 q 672 737 672 668 q 604 909 672 837 q 439 983 535 983 l 14 983 l 14 710 l 361 710 q 328 676 357 706 q 298 647 311 659 q 264 614 280 629 q 136 484 172 521 l 111 458 l 86 432 q 43 378 59 403 q 0 245 0 315 q 1 0 0 114 l 677 0 l 677 273 l 311 273 l 355 317 l 444 406 z "},"3":{"ha":717,"x_min":0,"x_max":683,"o":"m 315 983 q 0 983 84 983 l 0 711 l 380 711 q 406 698 395 711 q 416 665 416 684 q 408 635 416 648 q 380 619 397 619 l 380 619 l 0 619 l 0 366 l 380 366 l 380 366 q 409 347 398 366 q 416 319 416 335 q 406 287 416 300 q 380 273 395 273 l 0 273 l 0 0 l 434 0 q 609 94 536 0 q 683 319 683 189 q 646 498 683 429 q 683 665 683 575 q 571 927 683 852 q 315 983 487 983 z "},"4":{"ha":741,"x_min":0,"x_max":707,"o":"m 433 621 l 273 621 l 273 983 l 0 983 l 0 348 l 433 348 l 433 0 l 707 0 l 707 983 l 433 983 l 433 621 z "},"5":{"ha":716,"x_min":0,"x_max":682,"o":"m 273 619 l 273 710 l 652 710 l 652 983 l 0 983 l 0 366 l 380 366 l 380 366 q 409 347 398 366 q 416 319 416 335 q 406 287 416 300 q 380 273 395 273 l 0 273 l 0 0 l 383 0 q 613 94 535 0 q 682 319 682 178 q 634 496 682 425 q 528 585 595 553 q 373 619 450 621 l 273 619 z "},"6":{"ha":842,"x_min":0,"x_max":808,"o":"m 302 273 q 269 296 277 273 q 266 319 265 308 l 266 364 q 309 364 309 364 l 503 364 q 513 364 508 364 q 534 347 526 361 q 542 319 542 335 q 531 287 542 300 q 505 273 520 273 l 302 273 m 513 618 q 503 619 508 619 l 500 619 l 498 619 l 266 619 l 266 664 q 269 687 265 675 q 280 703 273 696 q 302 710 289 710 l 302 710 l 735 710 l 735 983 l 299 983 q 69 888 147 983 q 0 664 0 805 q 0 332 0 659 l 0 319 q 69 94 0 178 q 299 0 147 0 l 509 0 q 739 94 661 0 q 808 319 808 178 q 762 492 808 422 q 628 595 716 562 q 561 613 596 607 q 534 617 547 616 q 513 618 523 618 z "},"7":{"ha":716,"x_min":0,"x_max":682,"o":"m 0 710 l 304 710 l 96 0 l 382 0 l 682 983 l 0 983 l 0 710 z "},"8":{"ha":842,"x_min":0,"x_max":808,"o":"m 302 273 q 277 287 287 273 q 266 319 266 300 q 273 347 266 335 q 295 364 281 361 q 304 364 300 364 l 503 364 q 513 364 507 364 q 534 347 526 361 q 542 319 542 335 q 531 287 542 300 q 505 273 520 273 l 302 273 m 302 710 l 505 710 l 505 710 q 531 696 520 709 q 542 664 542 683 q 534 635 542 648 q 513 618 526 622 q 503 619 507 619 l 500 619 l 498 619 l 309 619 l 308 619 l 304 619 q 295 618 300 619 q 273 635 281 622 q 266 664 266 648 q 277 696 266 683 q 302 710 287 709 l 302 710 m 299 983 q 69 888 147 983 q 0 664 0 805 q 45 492 0 562 q 0 319 0 422 q 69 94 0 178 q 299 0 147 0 l 509 0 q 739 94 661 0 q 808 319 808 178 q 762 492 808 422 q 808 664 808 562 q 739 888 808 805 q 509 983 661 983 l 299 983 z "},"9":{"ha":842,"x_min":0,"x_max":808,"o":"m 505 710 q 538 687 530 710 q 542 664 543 675 l 542 618 q 498 619 499 619 l 304 619 q 294 618 300 619 q 273 635 281 622 q 266 664 266 648 q 277 696 266 683 q 302 710 287 709 l 505 710 m 294 364 q 304 364 300 364 l 308 364 l 309 364 l 542 364 l 542 319 q 538 296 543 308 q 528 280 534 286 q 505 273 519 273 l 505 273 l 73 273 l 73 0 l 509 0 q 739 94 661 0 q 808 319 808 178 q 808 651 808 323 l 808 664 q 739 888 808 805 q 509 983 661 983 l 299 983 q 69 888 147 983 q 0 664 0 805 q 45 492 0 561 q 180 388 92 421 q 247 370 212 376 q 274 366 260 368 q 294 364 285 365 z "},"\u0000":{"ha":0,"x_min":0,"x_max":0,"o":""},"\u001d":{"ha":0,"x_min":0,"x_max":0,"o":""}," ":{"ha":248,"x_min":0,"x_max":0,"o":""}," ":{"ha":248,"x_min":0,"x_max":0,"o":""},"!":{"ha":307,"x_min":0,"x_max":273,"o":"m 0 298 l 273 298 l 273 983 l 0 983 l 0 298 m 0 0 l 273 0 l 273 245 l 0 245 l 0 0 z "},"\"":{"ha":618,"x_min":0,"x_max":584,"o":"m 311 624 l 584 624 l 584 983 l 311 983 l 311 624 m 0 624 l 273 624 l 273 983 l 0 983 l 0 624 z "},"#":{"ha":539,"x_min":0,"x_max":505,"o":"m 0 713 l 0 578 l 31 578 l 16 492 l 173 492 l 188 578 l 244 578 l 229 492 l 386 492 l 401 578 l 475 578 l 475 713 l 425 713 l 435 765 l 505 765 l 505 900 l 459 900 l 474 983 l 317 983 l 302 900 l 246 900 l 261 983 l 104 983 l 89 900 l 31 900 l 31 765 l 64 765 l 56 713 l 0 713 m 277 765 l 269 713 l 212 713 l 222 765 l 277 765 z "},"$":{"ha":372,"x_min":0,"x_max":338,"o":"m 119 939 q 37 902 71 939 q 3 816 3 865 q 24 749 3 781 l 183 584 l 0 584 l 0 447 l 120 447 l 120 400 l 219 400 l 219 447 l 222 447 q 304 484 270 447 q 338 570 338 520 q 317 636 338 605 q 175 785 309 648 q 158 802 160 800 l 332 802 l 332 939 l 219 939 l 219 982 l 120 982 l 120 939 l 119 939 z "},"%":{"ha":611,"x_min":0,"x_max":577,"o":"m 62 492 l 219 492 l 514 983 l 357 983 l 62 492 m 476 604 q 478 604 477 604 q 479 606 479 605 q 479 608 479 607 l 479 630 q 479 632 479 631 q 478 634 479 633 q 476 635 477 635 l 453 635 q 451 634 452 635 q 450 632 450 633 q 450 630 450 631 l 450 608 q 450 606 450 607 q 451 604 450 604 q 453 604 452 604 l 476 604 m 496 746 q 558 720 537 746 q 577 659 577 697 l 577 578 q 558 517 577 540 q 496 492 537 492 l 433 492 q 371 517 392 492 q 352 578 352 540 l 352 659 q 371 720 352 698 q 433 746 392 746 l 496 746 m 124 840 q 126 841 125 840 q 127 842 127 842 q 127 845 127 844 l 127 867 q 127 869 127 868 q 126 871 127 870 q 124 871 125 871 l 101 871 q 99 871 100 871 q 98 869 98 870 q 98 867 98 868 l 98 845 q 98 842 98 844 q 99 841 98 841 q 101 840 100 840 l 124 840 m 144 983 q 206 957 185 983 q 225 896 225 934 l 225 815 q 206 754 225 777 q 144 728 185 728 l 81 728 q 19 754 40 728 q 0 815 0 777 l 0 896 q 19 957 0 935 q 81 983 40 983 l 144 983 z "},"&":{"ha":865,"x_min":0,"x_max":831,"o":"m 302 272 q 277 286 287 272 q 266 318 266 299 q 275 348 266 335 q 302 364 286 363 l 565 364 l 565 272 l 302 272 m 565 710 l 565 617 l 302 617 q 273 635 284 618 q 266 664 266 648 q 277 696 266 683 q 302 710 287 709 l 302 710 l 471 710 l 471 983 l 248 983 q 73 888 146 983 q 0 664 0 794 q 37 484 0 554 q 0 318 0 408 q 111 56 0 130 q 368 0 195 0 l 831 0 l 831 710 l 565 710 z "},"'":{"ha":307,"x_min":0,"x_max":273,"o":"m 0 623 l 273 623 l 273 982 l 0 982 l 0 623 z "},"(":{"ha":373,"x_min":0,"x_max":339,"o":"m 339 273 l 302 273 q 280 280 289 273 q 269 296 273 286 q 266 319 265 308 l 266 664 q 269 687 265 675 q 280 703 273 696 q 302 710 289 710 l 339 710 l 339 983 l 299 983 q 69 888 147 983 q 0 664 0 805 l 0 319 q 69 94 0 178 q 299 0 147 0 l 339 0 l 339 273 z "},")":{"ha":373,"x_min":0,"x_max":339,"o":"m 0 0 l 40 0 q 270 94 192 0 q 339 319 339 178 l 339 664 q 270 888 339 805 q 40 983 192 983 l 0 983 l 0 710 l 37 710 q 59 703 50 710 q 70 687 66 696 q 73 664 74 675 l 73 319 q 70 296 74 308 q 59 280 66 286 q 37 273 50 273 l 0 273 l 0 0 z "},"*":{"ha":421,"x_min":0,"x_max":387,"o":"m 272 644 l 341 713 l 313 741 l 387 741 l 387 839 l 312 839 l 341 868 l 272 937 l 243 909 l 243 982 l 146 982 l 146 909 l 117 937 l 47 868 l 77 839 l 0 839 l 0 741 l 75 741 l 46 711 l 115 642 l 146 673 l 146 597 l 243 597 l 243 672 l 272 644 z "},"+":{"ha":645,"x_min":0,"x_max":611,"o":"m 169 186 l 442 186 l 442 355 l 611 355 l 611 628 l 442 628 l 442 797 l 169 797 l 169 628 l 0 628 l 0 355 l 169 355 l 169 186 z "},",":{"ha":416,"x_min":0,"x_max":382,"o":"m 0 0 l 287 0 l 382 245 l 95 245 l 0 0 z "},"-":{"ha":414,"x_min":0,"x_max":380,"o":"m 0 355 l 380 355 l 380 628 l 0 628 l 0 355 z "},"­":{"ha":414,"x_min":0,"x_max":380,"o":"m 0 355 l 380 355 l 380 628 l 0 628 l 0 355 z "},".":{"ha":307,"x_min":0,"x_max":273,"o":"m 0 0 l 273 0 l 273 245 l 0 245 l 0 0 z "},"/":{"ha":524,"x_min":0,"x_max":490,"o":"m 0 0 l 314 0 l 490 983 l 176 983 l 0 0 z "},":":{"ha":307,"x_min":0,"x_max":273,"o":"m 0 0 l 273 0 l 273 245 l 0 245 l 0 0 m 0 736 l 273 736 l 273 981 l 0 981 l 0 736 z "},";":{"ha":416,"x_min":0,"x_max":382,"o":"m 109 736 l 382 736 l 382 981 l 109 981 l 109 736 m 0 0 l 287 0 l 382 245 l 95 245 l 0 0 z "},";":{"ha":416,"x_min":0,"x_max":382,"o":"m 109 736 l 382 736 l 382 981 l 109 981 l 109 736 m 0 0 l 287 0 l 382 245 l 95 245 l 0 0 z "},"<":{"ha":638,"x_min":0,"x_max":604,"o":"m 0 340 l 604 0 l 604 301 l 268 491 l 604 681 l 604 981 l 0 644 l 0 340 z "},"=":{"ha":627,"x_min":0,"x_max":593,"o":"m 0 185 l 593 185 l 593 458 l 0 458 l 0 185 m 0 524 l 593 524 l 593 798 l 0 798 l 0 524 z "},">":{"ha":638,"x_min":0,"x_max":604,"o":"m 604 644 l 0 981 l 0 681 l 336 491 l 0 301 l 0 0 l 604 340 l 604 644 z "},"?":{"ha":716,"x_min":0,"x_max":682,"o":"m 0 983 l 0 710 l 380 710 l 380 710 q 406 696 395 709 q 416 664 416 683 q 409 635 416 648 q 380 617 398 618 l 0 617 l 0 298 l 273 298 l 273 364 l 373 364 q 528 398 450 362 q 682 664 682 471 q 613 888 682 805 q 383 983 535 983 l 0 983 m 0 0 l 273 0 l 273 245 l 0 245 l 0 0 z "},"@":{"ha":1074,"x_min":0,"x_max":1040,"o":"m 616 273 q 591 287 601 273 q 580 319 580 300 q 587 347 580 335 q 608 364 595 361 l 774 364 l 774 319 q 771 296 775 308 q 738 273 763 273 l 616 273 m 299 983 q 69 888 147 983 q 0 664 0 805 l 0 1 l 266 1 l 266 664 q 269 687 265 675 q 280 703 273 696 q 302 710 289 710 l 738 710 q 760 703 751 710 q 771 687 767 696 q 774 664 775 675 l 774 619 l 618 619 q 608 618 614 619 q 588 617 599 618 q 561 613 574 616 q 494 595 526 607 q 359 492 406 562 q 314 319 314 422 q 383 94 314 178 q 613 0 461 0 l 741 0 q 971 94 893 0 q 1040 319 1040 178 l 1040 664 q 971 888 1040 805 q 741 983 893 983 l 299 983 z "},"A":{"ha":1128,"x_min":0,"x_max":1095,"o":"m 461 353 l 554 599 l 647 353 l 461 353 m 389 983 l 0 0 l 328 0 l 364 97 l 743 97 l 781 0 l 1095 0 l 719 983 l 389 983 z "},"B":{"ha":916,"x_min":0,"x_max":882,"o":"m 570 635 q 539 619 557 619 l 539 619 l 274 619 l 274 711 l 539 711 q 568 698 556 711 q 580 665 580 684 q 570 635 580 648 m 274 273 l 274 366 l 539 366 l 539 366 q 571 347 559 366 q 580 319 580 335 q 568 287 580 300 q 539 273 556 273 l 274 273 m 0 983 l 0 0 l 600 0 q 799 95 717 1 q 882 319 882 189 q 840 498 882 429 q 882 665 882 575 q 755 927 882 852 q 464 983 660 983 l 0 983 z "},"C":{"ha":907,"x_min":0,"x_max":873,"o":"m 873 983 l 492 983 q 144 839 288 983 q 0 492 0 695 q 144 144 0 288 q 492 0 288 0 l 873 0 l 873 273 l 492 273 q 337 337 401 273 q 273 492 273 401 q 336 646 273 583 q 492 710 399 710 l 873 710 l 873 983 z "},"D":{"ha":956,"x_min":0,"x_max":922,"o":"m 273 273 l 273 710 l 430 710 l 430 710 q 586 646 522 710 q 649 492 649 583 q 585 337 649 401 q 430 273 521 273 l 273 273 m 0 983 l 0 0 l 430 0 q 777 144 633 0 q 922 492 922 288 q 777 839 922 695 q 430 983 633 983 l 0 983 z "},"E":{"ha":746,"x_min":0,"x_max":712,"o":"m 0 983 l 0 0 l 712 0 l 712 273 l 273 273 l 273 355 l 712 355 l 712 628 l 273 628 l 273 710 l 712 710 l 712 983 l 0 983 z "},"F":{"ha":746,"x_min":0,"x_max":712,"o":"m 0 983 l 0 0 l 273 0 l 273 355 l 644 355 l 644 628 l 273 628 l 273 710 l 712 710 l 712 983 l 0 983 z "},"G":{"ha":912,"x_min":0,"x_max":878,"o":"m 605 273 l 492 273 q 337 337 401 273 q 273 492 273 401 q 336 646 273 583 q 492 710 399 710 l 492 710 l 873 710 l 873 983 l 492 983 q 144 839 288 983 q 0 492 0 695 q 144 144 0 288 q 492 0 288 0 l 878 0 l 878 482 l 605 482 l 605 273 z "},"H":{"ha":872,"x_min":0,"x_max":838,"o":"m 566 628 l 273 628 l 273 983 l 0 983 l 0 0 l 273 0 l 273 355 l 566 355 l 566 0 l 838 0 l 838 983 l 566 983 l 566 628 z "},"I":{"ha":307,"x_min":0,"x_max":273,"o":"m 0 0 l 273 0 l 273 983 l 0 983 l 0 0 z "},"J":{"ha":703,"x_min":0,"x_max":669,"o":"m 396 505 q 283 303 396 362 q 205 277 248 285 q 180 273 192 275 q 172 273 176 273 l 170 273 l 170 273 l 0 273 l 0 0 l 162 0 q 170 0 166 0 q 182 0 176 0 q 214 2 197 1 q 304 17 260 6 q 527 136 437 50 q 622 272 587 193 q 669 505 669 375 l 669 983 l 396 983 l 396 505 z "},"K":{"ha":943,"x_min":0,"x_max":1206,"o":"m 556 983 l 273 599 l 273 983 l 0 983 l 0 0 l 273 0 l 273 250 l 492 0 l 1206 0 l 1206 273 l 624 273 l 491 427 l 909 983 l 556 983 z "},"L":{"ha":780,"x_min":0,"x_max":746,"o":"m 273 983 l 0 983 l 0 0 l 746 0 l 746 273 l 273 273 l 273 983 z "},"M":{"ha":1109,"x_min":0,"x_max":1075,"o":"m 537 538 l 307 983 l 0 983 l 0 0 l 273 0 l 273 431 l 537 4 l 802 431 l 802 0 l 1075 0 l 1075 983 l 734 983 l 537 538 z "},"N":{"ha":943,"x_min":0,"x_max":909,"o":"m 636 472 l 272 983 l 0 983 l 0 0 l 273 0 l 273 511 l 636 0 l 909 0 l 909 983 l 636 983 l 636 472 z "},"O":{"ha":1092,"x_min":0,"x_max":1058,"o":"m 492 273 q 337 337 401 273 q 273 492 273 401 q 336 646 273 583 q 492 710 399 710 l 566 710 q 722 646 659 710 q 785 492 785 583 q 721 337 785 401 q 566 273 657 273 l 492 273 m 492 983 q 144 839 288 983 q 0 492 0 695 q 144 144 0 288 q 492 0 288 0 l 566 0 q 914 144 770 0 q 1058 492 1058 288 q 914 839 1058 695 q 566 983 770 983 l 492 983 z "},"P":{"ha":860,"x_min":0,"x_max":826,"o":"m 0 983 l 0 0 l 273 0 l 273 252 l 464 252 l 464 252 q 720 359 614 253 q 826 617 826 467 q 720 874 826 768 q 464 983 614 981 l 0 983 m 273 536 l 273 670 l 439 670 q 487 650 467 670 q 507 603 507 631 q 487 555 507 575 q 439 536 467 536 l 273 536 z "},"Q":{"ha":1092,"x_min":0,"x_max":1058,"o":"m 497 273 l 492 273 q 337 337 401 273 q 273 492 273 401 q 336 646 273 583 q 492 710 399 710 l 566 710 q 722 646 659 710 q 785 492 785 583 q 760 387 785 434 l 648 517 l 442 337 l 497 273 m 781 -56 l 986 123 l 943 174 q 1058 492 1058 309 q 914 839 1058 695 q 566 983 770 983 l 492 983 q 144 839 288 983 q 0 492 0 695 q 144 144 0 288 q 492 0 288 0 l 566 0 q 714 21 644 0 l 781 -56 z "},"R":{"ha":860,"x_min":0,"x_max":1145,"o":"m 826 617 q 720 874 826 768 q 464 983 614 981 l 0 983 l 0 0 l 273 0 l 273 176 l 435 0 l 1145 0 l 1145 273 l 610 273 q 766 416 707 327 q 826 617 826 507 m 273 536 l 273 670 l 439 670 q 487 650 467 670 q 507 603 507 631 q 487 555 507 575 q 439 536 467 536 l 273 536 z "},"S":{"ha":711,"x_min":-61,"x_max":718,"o":"m 718 710 l 718 983 l 238 983 q 73 909 142 983 q 5 737 5 837 q 49 604 5 656 l 366 273 l -61 273 l -61 0 l 444 0 q 608 73 539 0 q 677 245 677 146 q 634 378 677 315 q 316 710 319 706 l 718 710 z "},"T":{"ha":812,"x_min":0,"x_max":778,"o":"m 0 983 l 0 710 l 252 710 l 252 0 l 526 0 l 526 710 l 778 710 l 778 983 l 0 983 z "},"U":{"ha":870,"x_min":0,"x_max":836,"o":"m 563 418 q 521 315 563 358 q 418 273 478 273 q 315 315 358 273 q 273 418 273 358 l 273 987 l 0 987 l 0 418 q 123 123 0 245 q 418 0 245 0 q 713 123 591 0 q 836 418 836 245 l 836 987 l 563 987 l 563 418 z "},"V":{"ha":1128,"x_min":0,"x_max":1095,"o":"m 541 385 l 314 983 l 0 983 l 376 0 l 705 0 l 1095 983 l 767 983 l 541 385 z "},"W":{"ha":1208,"x_min":0,"x_max":1175,"o":"m 784 621 l 701 983 l 460 983 l 376 621 l 294 983 l 0 983 l 225 0 l 494 0 l 583 366 l 633 0 l 935 0 l 1175 983 l 867 983 l 784 621 z "},"X":{"ha":991,"x_min":0,"x_max":957,"o":"m 957 983 l 611 983 l 479 769 l 346 983 l 0 983 l 3 977 l 306 492 l 3 5 l 0 0 l 346 0 l 479 214 l 611 0 l 957 0 l 954 5 l 651 492 l 954 977 l 957 983 z "},"Y":{"ha":1074,"x_min":0,"x_max":1040,"o":"m 519 646 l 318 983 l 0 983 l 361 381 l 383 343 l 383 0 l 656 0 l 656 343 l 679 381 l 1040 983 l 722 983 l 519 646 z "},"Z":{"ha":814,"x_min":0,"x_max":781,"o":"m 0 710 l 422 710 l 0 267 l 0 0 l 781 0 l 781 273 l 358 273 l 781 716 l 781 983 l 0 983 l 0 710 z "},"[":{"ha":389,"x_min":0,"x_max":355,"o":"m 355 273 l 273 273 l 273 710 l 355 710 l 355 983 l 0 983 l 0 0 l 355 0 l 355 273 z "},"\\":{"ha":524,"x_min":0,"x_max":490,"o":"m 314 983 l 0 983 l 176 0 l 490 0 l 314 983 z "},"]":{"ha":389,"x_min":0,"x_max":355,"o":"m 0 0 l 355 0 l 355 983 l 0 983 l 0 710 l 81 710 l 81 273 l 0 273 l 0 0 z "},"^":{"ha":825,"x_min":0,"x_max":791,"o":"m 320 390 l 399 599 l 479 390 l 791 390 l 564 983 l 235 983 l 0 390 l 320 390 z "},"_":{"ha":608,"x_min":0,"x_max":574,"o":"m 0 0 l 574 0 l 574 273 l 0 273 l 0 0 z "},"`":{"ha":34,"x_min":0,"x_max":0,"o":""},"a":{"ha":1128,"x_min":0,"x_max":1095,"o":"m 461 353 l 554 599 l 647 353 l 461 353 m 389 983 l 0 0 l 328 0 l 364 97 l 743 97 l 781 0 l 1095 0 l 719 983 l 389 983 z "},"b":{"ha":916,"x_min":0,"x_max":882,"o":"m 570 635 q 539 619 557 619 l 539 619 l 274 619 l 274 711 l 539 711 q 568 698 556 711 q 580 665 580 684 q 570 635 580 648 m 274 273 l 274 366 l 539 366 l 539 366 q 571 347 559 366 q 580 319 580 335 q 568 287 580 300 q 539 273 556 273 l 274 273 m 0 983 l 0 0 l 600 0 q 799 95 717 1 q 882 319 882 189 q 840 498 882 429 q 882 665 882 575 q 755 927 882 852 q 464 983 660 983 l 0 983 z "},"c":{"ha":907,"x_min":0,"x_max":873,"o":"m 873 983 l 492 983 q 144 839 288 983 q 0 492 0 695 q 144 144 0 288 q 492 0 288 0 l 873 0 l 873 273 l 492 273 q 337 337 401 273 q 273 492 273 401 q 336 646 273 583 q 492 710 399 710 l 873 710 l 873 983 z "},"d":{"ha":956,"x_min":0,"x_max":922,"o":"m 273 273 l 273 710 l 430 710 l 430 710 q 586 646 522 710 q 649 492 649 583 q 585 337 649 401 q 430 273 521 273 l 273 273 m 0 983 l 0 0 l 430 0 q 777 144 633 0 q 922 492 922 288 q 777 839 922 695 q 430 983 633 983 l 0 983 z "},"e":{"ha":746,"x_min":0,"x_max":712,"o":"m 0 983 l 0 0 l 712 0 l 712 273 l 273 273 l 273 355 l 712 355 l 712 628 l 273 628 l 273 710 l 712 710 l 712 983 l 0 983 z "},"f":{"ha":746,"x_min":0,"x_max":712,"o":"m 0 983 l 0 0 l 273 0 l 273 355 l 644 355 l 644 628 l 273 628 l 273 710 l 712 710 l 712 983 l 0 983 z "},"g":{"ha":912,"x_min":0,"x_max":878,"o":"m 605 273 l 492 273 q 337 337 401 273 q 273 492 273 401 q 336 646 273 583 q 492 710 399 710 l 492 710 l 873 710 l 873 983 l 492 983 q 144 839 288 983 q 0 492 0 695 q 144 144 0 288 q 492 0 288 0 l 878 0 l 878 482 l 605 482 l 605 273 z "},"h":{"ha":872,"x_min":0,"x_max":838,"o":"m 566 628 l 273 628 l 273 983 l 0 983 l 0 0 l 273 0 l 273 355 l 566 355 l 566 0 l 838 0 l 838 983 l 566 983 l 566 628 z "},"i":{"ha":307,"x_min":0,"x_max":273,"o":"m 0 0 l 273 0 l 273 983 l 0 983 l 0 0 z "},"j":{"ha":703,"x_min":0,"x_max":669,"o":"m 396 505 q 283 303 396 362 q 205 277 248 285 q 180 273 192 275 q 172 273 176 273 l 170 273 l 170 273 l 0 273 l 0 0 l 162 0 q 170 0 166 0 q 182 0 176 0 q 214 2 197 1 q 304 17 260 6 q 527 136 437 50 q 622 272 587 193 q 669 505 669 375 l 669 983 l 396 983 l 396 505 z "},"k":{"ha":943,"x_min":0,"x_max":909,"o":"m 556 983 l 273 599 l 273 983 l 0 983 l 0 0 l 273 0 l 273 250 q 313 191 291 219 q 342 157 327 174 q 754 0 492 0 l 909 0 l 909 273 l 754 273 q 541 345 610 273 q 491 427 509 378 l 909 983 l 556 983 z "},"l":{"ha":780,"x_min":0,"x_max":746,"o":"m 273 983 l 0 983 l 0 0 l 746 0 l 746 273 l 273 273 l 273 983 z "},"m":{"ha":1109,"x_min":0,"x_max":1075,"o":"m 537 538 l 307 983 l 0 983 l 0 0 l 273 0 l 273 431 l 537 4 l 802 431 l 802 0 l 1075 0 l 1075 983 l 734 983 l 537 538 z "},"n":{"ha":943,"x_min":0,"x_max":909,"o":"m 636 472 l 272 983 l 0 983 l 0 0 l 273 0 l 273 511 l 636 0 l 909 0 l 909 983 l 636 983 l 636 472 z "},"o":{"ha":1092,"x_min":0,"x_max":1058,"o":"m 492 273 q 337 337 401 273 q 273 492 273 401 q 336 646 273 583 q 492 710 399 710 l 566 710 q 722 646 659 710 q 785 492 785 583 q 721 337 785 401 q 566 273 657 273 l 492 273 m 492 983 q 144 839 288 983 q 0 492 0 695 q 144 144 0 288 q 492 0 288 0 l 566 0 q 914 144 770 0 q 1058 492 1058 288 q 914 839 1058 695 q 566 983 770 983 l 492 983 z "},"p":{"ha":860,"x_min":0,"x_max":826,"o":"m 0 983 l 0 0 l 273 0 l 273 252 l 464 252 l 464 252 q 720 359 614 253 q 826 617 826 467 q 720 874 826 768 q 464 983 614 981 l 0 983 m 273 536 l 273 670 l 439 670 q 487 650 467 670 q 507 603 507 631 q 487 555 507 575 q 439 536 467 536 l 273 536 z "},"q":{"ha":1092,"x_min":0,"x_max":1058,"o":"m 497 273 l 492 273 q 337 337 401 273 q 273 492 273 401 q 336 646 273 583 q 492 710 399 710 l 566 710 q 722 646 659 710 q 785 492 785 583 q 760 387 785 434 l 648 517 l 442 337 l 497 273 m 781 -56 l 986 123 l 943 174 q 1058 492 1058 309 q 914 839 1058 695 q 566 983 770 983 l 492 983 q 144 839 288 983 q 0 492 0 695 q 144 144 0 288 q 492 0 288 0 l 566 0 q 714 21 644 0 l 781 -56 z "},"r":{"ha":860,"x_min":0,"x_max":826,"o":"m 826 617 q 720 874 826 768 q 464 983 614 981 l 0 983 l 0 0 l 273 0 l 273 176 q 292 155 282 165 q 724 0 435 0 l 806 0 l 806 273 l 724 273 q 610 283 660 273 q 766 416 707 327 q 826 617 826 507 m 273 536 l 273 670 l 439 670 q 487 650 467 670 q 507 603 507 631 q 487 555 507 575 q 439 536 467 536 l 273 536 z "},"s":{"ha":711,"x_min":0,"x_max":677,"o":"m 663 710 l 663 983 l 238 983 q 73 909 142 983 q 5 737 5 837 q 49 604 5 656 l 366 273 l 0 273 l 0 0 l 444 0 q 608 73 539 0 q 677 245 677 146 q 634 378 677 315 q 316 710 319 706 l 663 710 z "},"t":{"ha":812,"x_min":0,"x_max":778,"o":"m 0 983 l 0 710 l 252 710 l 252 0 l 526 0 l 526 710 l 778 710 l 778 983 l 0 983 z "},"u":{"ha":870,"x_min":0,"x_max":836,"o":"m 563 418 q 521 315 563 358 q 418 273 478 273 q 315 315 358 273 q 273 418 273 358 l 273 987 l 0 987 l 0 418 q 123 123 0 245 q 418 0 245 0 q 713 123 591 0 q 836 418 836 245 l 836 987 l 563 987 l 563 418 z "},"v":{"ha":1128,"x_min":0,"x_max":1095,"o":"m 541 385 l 314 983 l 0 983 l 376 0 l 705 0 l 1095 983 l 767 983 l 541 385 z "},"w":{"ha":1208,"x_min":0,"x_max":1175,"o":"m 784 621 l 701 983 l 460 983 l 376 621 l 294 983 l 0 983 l 225 0 l 494 0 l 583 366 l 633 0 l 935 0 l 1175 983 l 867 983 l 784 621 z "},"x":{"ha":991,"x_min":0,"x_max":957,"o":"m 957 983 l 611 983 l 479 769 l 346 983 l 0 983 l 3 977 l 306 492 l 3 5 l 0 0 l 346 0 l 479 214 l 611 0 l 957 0 l 954 5 l 651 492 l 954 977 l 957 983 z "},"y":{"ha":1074,"x_min":0,"x_max":1040,"o":"m 519 646 l 318 983 l 0 983 l 361 381 l 383 343 l 383 0 l 656 0 l 656 343 l 679 381 l 1040 983 l 722 983 l 519 646 z "},"z":{"ha":814,"x_min":0,"x_max":781,"o":"m 0 710 l 422 710 l 0 267 l 0 0 l 781 0 l 781 273 l 358 273 l 781 716 l 781 983 l 0 983 l 0 710 z "},"{":{"ha":34,"x_min":0,"x_max":0,"o":""},"|":{"ha":307,"x_min":0,"x_max":273,"o":"m 0 0 l 273 0 l 273 983 l 0 983 l 0 0 z "},"}":{"ha":34,"x_min":0,"x_max":0,"o":""},"~":{"ha":34,"x_min":0,"x_max":0,"o":""},"¡":{"ha":34,"x_min":0,"x_max":0,"o":""},"¢":{"ha":34,"x_min":0,"x_max":0,"o":""},"£":{"ha":376,"x_min":0,"x_max":342,"o":"m 24 492 l 342 492 l 342 629 l 161 629 l 161 665 l 234 665 l 234 753 l 161 753 l 161 814 q 168 830 161 823 q 184 838 174 838 q 200 830 193 838 q 207 814 207 823 l 207 791 l 342 791 l 342 825 q 296 937 342 891 q 184 983 250 983 q 71 937 118 983 q 24 825 24 891 l 24 753 l 0 753 l 0 665 l 24 665 l 24 492 z "},"¤":{"ha":34,"x_min":0,"x_max":0,"o":""},"¥":{"ha":34,"x_min":0,"x_max":0,"o":""},"¦":{"ha":34,"x_min":0,"x_max":0,"o":""},"§":{"ha":34,"x_min":0,"x_max":0,"o":""},"¨":{"ha":34,"x_min":0,"x_max":0,"o":""},"©":{"ha":34,"x_min":0,"x_max":0,"o":""},"ª":{"ha":34,"x_min":0,"x_max":0,"o":""},"«":{"ha":34,"x_min":0,"x_max":0,"o":""},"¬":{"ha":34,"x_min":0,"x_max":0,"o":""},"®":{"ha":34,"x_min":0,"x_max":0,"o":""},"¯":{"ha":34,"x_min":0,"x_max":0,"o":""},"°":{"ha":34,"x_min":0,"x_max":0,"o":""},"±":{"ha":34,"x_min":0,"x_max":0,"o":""},"²":{"ha":34,"x_min":0,"x_max":0,"o":""},"³":{"ha":34,"x_min":0,"x_max":0,"o":""},"´":{"ha":34,"x_min":0,"x_max":0,"o":""},"µ":{"ha":34,"x_min":0,"x_max":0,"o":""},"¶":{"ha":34,"x_min":0,"x_max":0,"o":""},"·":{"ha":34,"x_min":0,"x_max":0,"o":""},"∙":{"ha":34,"x_min":0,"x_max":0,"o":""},"¸":{"ha":34,"x_min":0,"x_max":0,"o":""},"¹":{"ha":34,"x_min":0,"x_max":0,"o":""},"º":{"ha":34,"x_min":0,"x_max":0,"o":""},"»":{"ha":34,"x_min":0,"x_max":0,"o":""},"¼":{"ha":34,"x_min":0,"x_max":0,"o":""},"½":{"ha":34,"x_min":0,"x_max":0,"o":""},"¾":{"ha":34,"x_min":0,"x_max":0,"o":""},"¿":{"ha":34,"x_min":0,"x_max":0,"o":""},"À":{"ha":34,"x_min":0,"x_max":0,"o":""},"Á":{"ha":34,"x_min":0,"x_max":0,"o":""},"Â":{"ha":34,"x_min":0,"x_max":0,"o":""},"Ã":{"ha":34,"x_min":0,"x_max":0,"o":""},"Ä":{"ha":34,"x_min":0,"x_max":0,"o":""},"Å":{"ha":34,"x_min":0,"x_max":0,"o":""},"Æ":{"ha":34,"x_min":0,"x_max":0,"o":""},"Ç":{"ha":34,"x_min":0,"x_max":0,"o":""},"È":{"ha":34,"x_min":0,"x_max":0,"o":""},"É":{"ha":34,"x_min":0,"x_max":0,"o":""},"Ê":{"ha":34,"x_min":0,"x_max":0,"o":""},"Ë":{"ha":34,"x_min":0,"x_max":0,"o":""},"Ì":{"ha":34,"x_min":0,"x_max":0,"o":""},"Í":{"ha":34,"x_min":0,"x_max":0,"o":""},"Î":{"ha":34,"x_min":0,"x_max":0,"o":""},"Ï":{"ha":34,"x_min":0,"x_max":0,"o":""},"Ð":{"ha":34,"x_min":0,"x_max":0,"o":""},"Ñ":{"ha":34,"x_min":0,"x_max":0,"o":""},"Ò":{"ha":34,"x_min":0,"x_max":0,"o":""},"Ó":{"ha":34,"x_min":0,"x_max":0,"o":""},"Ô":{"ha":34,"x_min":0,"x_max":0,"o":""},"Õ":{"ha":34,"x_min":0,"x_max":0,"o":""},"Ö":{"ha":34,"x_min":0,"x_max":0,"o":""},"×":{"ha":34,"x_min":0,"x_max":0,"o":""},"Ø":{"ha":34,"x_min":0,"x_max":0,"o":""},"Ù":{"ha":34,"x_min":0,"x_max":0,"o":""},"Ú":{"ha":34,"x_min":0,"x_max":0,"o":""},"Û":{"ha":34,"x_min":0,"x_max":0,"o":""},"Ü":{"ha":34,"x_min":0,"x_max":0,"o":""},"Ý":{"ha":34,"x_min":0,"x_max":0,"o":""},"Þ":{"ha":34,"x_min":0,"x_max":0,"o":""},"ß":{"ha":899,"x_min":0,"x_max":865,"o":"m 865 665 q 753 927 865 852 q 496 983 669 983 l 299 983 q 69 888 147 983 q 0 664 0 805 l 0 0 l 266 0 l 266 664 q 274 687 266 675 q 292 703 281 698 q 330 711 307 711 l 562 711 q 588 697 577 711 q 599 665 599 684 q 589 635 599 648 q 562 619 578 619 l 562 619 l 372 619 l 372 366 l 562 366 l 562 366 q 591 347 580 366 q 599 319 599 335 q 588 287 599 300 q 562 273 577 273 l 372 273 l 372 0 l 616 0 q 791 94 718 0 q 865 319 865 189 q 827 498 865 429 q 865 665 865 575 z "},"à":{"ha":34,"x_min":0,"x_max":0,"o":""},"á":{"ha":34,"x_min":0,"x_max":0,"o":""},"â":{"ha":34,"x_min":0,"x_max":0,"o":""},"ã":{"ha":34,"x_min":0,"x_max":0,"o":""},"ä":{"ha":34,"x_min":0,"x_max":0,"o":""},"å":{"ha":34,"x_min":0,"x_max":0,"o":""},"æ":{"ha":34,"x_min":0,"x_max":0,"o":""},"ç":{"ha":34,"x_min":0,"x_max":0,"o":""},"è":{"ha":34,"x_min":0,"x_max":0,"o":""},"é":{"ha":34,"x_min":0,"x_max":0,"o":""},"ê":{"ha":34,"x_min":0,"x_max":0,"o":""},"ë":{"ha":34,"x_min":0,"x_max":0,"o":""},"ì":{"ha":34,"x_min":0,"x_max":0,"o":""},"í":{"ha":34,"x_min":0,"x_max":0,"o":""},"î":{"ha":34,"x_min":0,"x_max":0,"o":""},"ï":{"ha":34,"x_min":0,"x_max":0,"o":""},"ð":{"ha":34,"x_min":0,"x_max":0,"o":""},"ñ":{"ha":34,"x_min":0,"x_max":0,"o":""},"ò":{"ha":34,"x_min":0,"x_max":0,"o":""},"ó":{"ha":34,"x_min":0,"x_max":0,"o":""},"ô":{"ha":34,"x_min":0,"x_max":0,"o":""},"õ":{"ha":34,"x_min":0,"x_max":0,"o":""},"ö":{"ha":34,"x_min":0,"x_max":0,"o":""},"÷":{"ha":34,"x_min":0,"x_max":0,"o":""},"ø":{"ha":34,"x_min":0,"x_max":0,"o":""},"ù":{"ha":34,"x_min":0,"x_max":0,"o":""},"ú":{"ha":34,"x_min":0,"x_max":0,"o":""},"û":{"ha":34,"x_min":0,"x_max":0,"o":""},"ü":{"ha":34,"x_min":0,"x_max":0,"o":""},"ý":{"ha":34,"x_min":0,"x_max":0,"o":""},"þ":{"ha":34,"x_min":0,"x_max":0,"o":""},"ÿ":{"ha":34,"x_min":0,"x_max":0,"o":""},"ı":{"ha":34,"x_min":0,"x_max":0,"o":""},"ˆ":{"ha":34,"x_min":0,"x_max":0,"o":""},"ˇ":{"ha":34,"x_min":0,"x_max":0,"o":""},"ˉ":{"ha":34,"x_min":0,"x_max":0,"o":""},"˘":{"ha":34,"x_min":0,"x_max":0,"o":""},"˙":{"ha":34,"x_min":0,"x_max":0,"o":""},"˚":{"ha":34,"x_min":0,"x_max":0,"o":""},"˛":{"ha":34,"x_min":0,"x_max":0,"o":""},"˜":{"ha":34,"x_min":0,"x_max":0,"o":""},"˝":{"ha":34,"x_min":0,"x_max":0,"o":""},"–":{"ha":34,"x_min":0,"x_max":0,"o":""},"—":{"ha":34,"x_min":0,"x_max":0,"o":""},"‘":{"ha":34,"x_min":0,"x_max":0,"o":""},"’":{"ha":34,"x_min":0,"x_max":0,"o":""},"‚":{"ha":34,"x_min":0,"x_max":0,"o":""},"“":{"ha":34,"x_min":0,"x_max":0,"o":""},"”":{"ha":34,"x_min":0,"x_max":0,"o":""},"„":{"ha":34,"x_min":0,"x_max":0,"o":""},"†":{"ha":34,"x_min":0,"x_max":0,"o":""},"‡":{"ha":34,"x_min":0,"x_max":0,"o":""},"•":{"ha":34,"x_min":0,"x_max":0,"o":""},"…":{"ha":34,"x_min":0,"x_max":0,"o":""},"‹":{"ha":34,"x_min":0,"x_max":0,"o":""},"›":{"ha":34,"x_min":0,"x_max":0,"o":""},"⁄":{"ha":34,"x_min":0,"x_max":0,"o":""},"∕":{"ha":34,"x_min":0,"x_max":0,"o":""},"₣":{"ha":34,"x_min":0,"x_max":0,"o":""},"₤":{"ha":34,"x_min":0,"x_max":0,"o":""},"₧":{"ha":34,"x_min":0,"x_max":0,"o":""},"€":{"ha":34,"x_min":0,"x_max":0,"o":""},"№":{"ha":34,"x_min":0,"x_max":0,"o":""},"™":{"ha":34,"x_min":0,"x_max":0,"o":""},"∂":{"ha":34,"x_min":0,"x_max":0,"o":""},"∆":{"ha":34,"x_min":0,"x_max":0,"o":""},"∏":{"ha":34,"x_min":0,"x_max":0,"o":""},"∑":{"ha":34,"x_min":0,"x_max":0,"o":""},"−":{"ha":34,"x_min":0,"x_max":0,"o":""},"√":{"ha":34,"x_min":0,"x_max":0,"o":""},"∞":{"ha":34,"x_min":0,"x_max":0,"o":""},"∫":{"ha":34,"x_min":0,"x_max":0,"o":""},"≈":{"ha":34,"x_min":0,"x_max":0,"o":""},"≤":{"ha":34,"x_min":0,"x_max":0,"o":""},"≥":{"ha":34,"x_min":0,"x_max":0,"o":""}}}
